<svg viewBox="0 0 0 0"><symbol fill="white" viewBox="0 0 12 9.5" id="icon-comment"><title>comment</title><path d="m10.5 0-9 0C0.4 0 0 0.4 0 1.5L0 6c0 1.1 0.4 1.5 1.5 1.5l0.3 0 0 2 2.2-2 6.5 0C11.6 7.5 12 7.1 12 6L12 1.5C12 0.4 11.6 0 10.5 0z"/></symbol><symbol fill="white" viewBox="0 0 16 16" id="icon-ellipsis"><title>ellipsis</title><path d="M3 6.3C2 6.3 1.3 7 1.3 8c0 1 0.8 1.8 1.8 1.8S4.8 9 4.8 8C4.8 7 4 6.3 3 6.3zM8 6.3C7 6.3 6.3 7 6.3 8c0 1 0.8 1.8 1.8 1.8 1 0 1.8-0.8 1.8-1.7C9.8 7 9 6.3 8 6.3zM13 6.3c-1 0-1.7 0.8-1.7 1.8 0 1 0.8 1.8 1.8 1.8S14.8 9 14.8 8C14.8 7 14 6.3 13 6.3z"/></symbol><symbol fill="white" viewBox="0 0 16 16" id="icon-x"><title>x</title><polygon points="12,5 11,4 8.5,6.5 6,4 5,5 7.5,7.5 5,10 6,11 8.5,8.5 11,11 12,10 9.5,7.5"/></symbol></svg>